# xmcd
#
# Track frame offsets:
#	150
#	9115
#	26339
#	45670
#	58083
#	68620
#	89632
#	98915
#	110131
#	123062
#
# Disc length: 1839 seconds
#
# Revision: 1
# Processed by: cddbd v1.5.2PL0 Copyright (c) Steve Scherf et al.
# Submitted via: audiograbber 1.83.01
#
DISCID=78072d0a
DTITLE=New Mountain Harmony - Just Another Hill
DYEAR=2001
DGENRE=Gospel
TTITLE0=Hiding Place
TTITLE1=Just Another Hill
TTITLE2=Glorious Praise
TTITLE3=Cry From The Cross
TTITLE4=Were You There
TTITLE5=Pauls Ministry
TTITLE6=Everywhere I Go
TTITLE7=Not Afraid
TTITLE8=Be Lifted Up
TTITLE9=Satisfied
EXTD=
EXTT0=
EXTT1=
EXTT2=
EXTT3=
EXTT4=
EXTT5=
EXTT6=
EXTT7=
EXTT8=
EXTT9=
PLAYORDER=
